{
	"asset":
	{
		"version": "2.0",
		"generator": "Unreal Engine 5.6.1"
	},
	"scene": 0,
	"accessors": [
		{
			"bufferView": 0,
			"count": 30,
			"type": "SCALAR",
			"componentType": 5121
		},
		{
			"bufferView": 1,
			"count": 20,
			"type": "VEC3",
			"componentType": 5126,
			"min": [ -2, -0.0500003025, -2 ],
			"max": [ 2, 1.22464672e-16, 2 ]
		},
		{
			"bufferView": 2,
			"count": 20,
			"type": "VEC3",
			"componentType": 5126
		},
		{
			"bufferView": 3,
			"count": 20,
			"type": "VEC4",
			"componentType": 5126
		},
		{
			"bufferView": 4,
			"count": 20,
			"type": "VEC2",
			"componentType": 5126
		},
		{
			"bufferView": 5,
			"count": 20,
			"type": "VEC2",
			"componentType": 5126
		},
		{
			"bufferView": 6,
			"count": 30,
			"type": "SCALAR",
			"componentType": 5121
		},
		{
			"bufferView": 7,
			"count": 20,
			"type": "VEC3",
			"componentType": 5126,
			"min": [ -2, -0.25, -2 ],
			"max": [ 2, -0.0500003025, 2 ]
		},
		{
			"bufferView": 8,
			"count": 20,
			"type": "VEC3",
			"componentType": 5126
		},
		{
			"bufferView": 9,
			"count": 20,
			"type": "VEC4",
			"componentType": 5126
		},
		{
			"bufferView": 10,
			"count": 20,
			"type": "VEC2",
			"componentType": 5126
		},
		{
			"bufferView": 11,
			"count": 20,
			"type": "VEC2",
			"componentType": 5126
		}
	],
	"buffers": [
		{
			"uri": "SM_floor_01.bin",
			"byteLength": 2304
		}
	],
	"bufferViews": [
		{
			"buffer": 0,
			"byteLength": 30,
			"target": 34963
		},
		{
			"buffer": 0,
			"byteLength": 240,
			"byteOffset": 32,
			"target": 34962
		},
		{
			"buffer": 0,
			"byteLength": 240,
			"byteOffset": 272,
			"target": 34962
		},
		{
			"buffer": 0,
			"byteLength": 320,
			"byteOffset": 512,
			"target": 34962
		},
		{
			"buffer": 0,
			"byteLength": 160,
			"byteOffset": 832,
			"target": 34962
		},
		{
			"buffer": 0,
			"byteLength": 160,
			"byteOffset": 992,
			"target": 34962
		},
		{
			"buffer": 0,
			"byteLength": 30,
			"byteOffset": 1152,
			"target": 34963
		},
		{
			"buffer": 0,
			"byteLength": 240,
			"byteOffset": 1184,
			"target": 34962
		},
		{
			"buffer": 0,
			"byteLength": 240,
			"byteOffset": 1424,
			"target": 34962
		},
		{
			"buffer": 0,
			"byteLength": 320,
			"byteOffset": 1664,
			"target": 34962
		},
		{
			"buffer": 0,
			"byteLength": 160,
			"byteOffset": 1984,
			"target": 34962
		},
		{
			"buffer": 0,
			"byteLength": 160,
			"byteOffset": 2144,
			"target": 34962
		}
	],
	"images": [
		{
			"uri": "MI_Planks_01_BaseColor.png"
		},
		{
			"uri": "MI_Planks_01_MetallicRoughness.png"
		}
	],
	"materials": [
		{
			"name": "MI_Planks_01",
			"pbrMetallicRoughness":
			{
				"baseColorTexture":
				{
					"index": 0
				},
				"metallicRoughnessTexture":
				{
					"index": 1
				}
			},
			"doubleSided": true
		},
		{
			"name": "MI_matteWhite",
			"pbrMetallicRoughness":
			{
				"baseColorFactor": [ 0.800000012, 0.800000012, 0.800000012, 1 ],
				"metallicFactor": 0
			},
			"doubleSided": true
		}
	],
	"meshes": [
		{
			"name": "SM_floor_01",
			"primitives": [
				{
					"attributes":
					{
						"POSITION": 1,
						"NORMAL": 2,
						"TANGENT": 3,
						"TEXCOORD_0": 4,
						"TEXCOORD_1": 5
					},
					"indices": 0,
					"material": 0
				},
				{
					"attributes":
					{
						"POSITION": 7,
						"NORMAL": 8,
						"TANGENT": 9,
						"TEXCOORD_0": 10,
						"TEXCOORD_1": 11
					},
					"indices": 6,
					"material": 1
				}
			]
		}
	],
	"nodes": [
		{
			"mesh": 0
		}
	],
	"samplers": [
		{
			"minFilter": 9987,
			"magFilter": 9729
		}
	],
	"scenes": [
		{
			"nodes": [ 0 ]
		}
	],
	"textures": [
		{
			"name": "MI_Planks_01_BaseColor",
			"sampler": 0,
			"source": 0
		},
		{
			"name": "MI_Planks_01_MetallicRoughness",
			"sampler": 0,
			"source": 1
		}
	]
}